<?xml version="1.0" encoding="UTF-8"?>
<svg width="24px" height="24px" viewBox="0 0 24 24" version="1.1" xmlns="http://www.w3.org/2000/svg" xmlns:xlink="http://www.w3.org/1999/xlink">
    <title>icn24_rewrite</title>
    <g id="Sticker" stroke="none" stroke-width="1" fill="none" fill-rule="evenodd">
        <g id="Desktop-HD" transform="translate(-590.000000, -402.000000)" fill-rule="nonzero">
            <g id="icn24_rewrite" transform="translate(590.000000, 402.000000)">
                <g id="write_outline_28">
                    <rect x="0" y="0" width="24" height="24"></rect>
                    <path d="M19,10 C19,9.44771525 19.4477153,9 20,9 C20.5128358,9 20.9355072,9.38604019 20.9932723,9.88337887 L21,10 L21,10 L21,15.3024773 C21,17.2836301 20.7937209,18.002044 20.4063718,18.7263238 C20.0190227,19.4506036 19.4506036,20.0190227 18.7263238,20.4063718 C18.002044,20.7937209 17.2836301,21 15.3024773,21 L8.69752267,21 C6.71636991,21 5.99795605,20.7937209 5.27367621,20.4063718 C4.54939638,20.0190227 3.98097733,19.4506036 3.59362823,18.7263238 C3.20627914,18.002044 3,17.2836301 3,15.3024773 L3,8.69752267 C3,6.71636991 3.20627914,5.99795605 3.59362823,5.27367621 C3.98097733,4.54939638 4.54939638,3.98097733 5.27367621,3.59362823 C5.99795605,3.20627914 6.71636991,3 8.69752267,3 L14,3 L14,5 L8.57459474,5 C7.06179036,5 6.60109879,5.08896365 6.13086436,5.34044778 C5.78421875,5.52583587 5.52583587,5.78421875 5.34044778,6.13086436 C5.10293499,6.57497466 5.01038646,7.01057296 5.00083635,8.33202042 L5,15.4254053 C5,16.9382096 5.08896365,17.3989012 5.34044778,17.8691356 C5.52583587,18.2157813 5.78421875,18.4741641 6.13086436,18.6595522 C6.60109879,18.9110364 7.06179036,19 8.57459474,19 L15.4254053,19 C16.9382096,19 17.3989012,18.9110364 17.8691356,18.6595522 C18.2157813,18.4741641 18.4741641,18.2157813 18.6595522,17.8691356 C18.9110364,17.3989012 19,16.9382096 19,15.4254053 L19,10 L19,10 Z M19.3882461,2.84183141 L21.1046859,4.66092556 C18.6009095,7.16470196 14.2651374,11.500474 13.4926407,12.2729708 C12.4319805,13.3336309 10.4874369,14.2175144 10.1338835,13.863961 C9.78033009,13.5104076 10.6642136,11.565864 11.7248737,10.5052038 L11.8679486,10.362129 C12.9369581,9.29311945 17.0176362,5.21244138 19.3882461,2.84183141 Z M14,3 C14.5522847,3 15,3.44771525 15,4 C15,4.51283584 14.6139598,4.93550716 14.1166211,4.99327227 L14,5 L14,3 Z M22.8618055,1.13603897 C23.3921356,1.66636906 23.3921356,2.37347584 22.8618055,2.90380592 L22.5796505,3.18596092 C22.4673552,3.29825624 22.3272257,3.43838576 22.1636035,3.60200795 L20.3958366,1.834241 C20.7639865,1.46609108 21.0132048,1.21687276 21.0940386,1.13603897 C21.6243687,0.605708883 22.3314755,0.605708883 22.8618055,1.13603897 Z" id="icon" fill="#3F8AE0"></path>
                </g>
            </g>
        </g>
    </g>
</svg>