<?xml version="1.0" encoding="UTF-8"?>
<svg width="14px" height="14px" viewBox="0 0 14 14" version="1.1" xmlns="http://www.w3.org/2000/svg" xmlns:xlink="http://www.w3.org/1999/xlink">
    <title>icon_decline</title>
    <g id="Sticker" stroke="none" stroke-width="1" fill="none" fill-rule="evenodd">
        <g id="Desktop-HD" transform="translate(-989.000000, -132.000000)">
            <g id="SuggestedQuestion" transform="translate(389.000000, 111.000000)">
                <g id="Header" transform="translate(16.000000, 12.000000)">
                    <g id="Actoins" transform="translate(534.000000, 0.000000)">
                        <g id="decline" transform="translate(40.000000, 0.000000)">
                            <g id="Icons-24/cancel_24-@-close" transform="translate(5.000000, 4.000000)">
                                <g id="cancel_24">
                                    <rect x="0" y="0" width="24" height="24"></rect>
                                    <path d="M18.3,5.7 C17.9134007,5.31340068 17.2865993,5.31340068 16.9,5.7 L12,10.6 L12,10.6 L7.1,5.7 C6.71340068,5.31340068 6.08659932,5.31340068 5.7,5.7 C5.31340068,6.08659932 5.31340068,6.71340068 5.7,7.1 L10.6,12 L10.6,12 L5.7,16.9 C5.31340068,17.2865993 5.31340068,17.9134007 5.7,18.3 C6.08659932,18.6865993 6.71340068,18.6865993 7.1,18.3 L12,13.4 L12,13.4 L16.9,18.3 C17.2865993,18.6865993 17.9134007,18.6865993 18.3,18.3 C18.6865993,17.9134007 18.6865993,17.2865993 18.3,16.9 L13.4,12 L13.4,12 L18.3,7.1 C18.6865993,6.71340068 18.6865993,6.08659932 18.3,5.7 Z" id="↳-Icon-Color" fill="#E64646" fill-rule="nonzero"></path>
                                </g>
                            </g>
                        </g>
                    </g>
                </g>
            </g>
        </g>
    </g>
</svg>